<?xml version="1.0" encoding="UTF-8"?>
<svg version="1.1" xmlns="http://www.w3.org/2000/svg" width="731" height="720">
<path d="M0 0 C1.24506832 -0.00199105 2.49013665 -0.0039821 3.77293432 -0.00603348 C5.14658971 -0.00318081 6.52024491 -0.00023522 7.89389992 0.00279331 C9.35925777 0.0023571 10.82461554 0.00148128 12.2899729 0.00020415 C16.31258392 -0.00203103 20.3351683 0.00196713 24.35777593 0.00698221 C28.6971793 0.01130053 33.03658118 0.0098393 37.3759861 0.00907993 C44.89296131 0.00855558 52.40992784 0.01169318 59.92690086 0.01731777 C70.79518319 0.02544469 81.66346131 0.02804922 92.53174634 0.02930576 C110.16480585 0.0314944 127.79786074 0.03814941 145.43091774 0.04760838 C162.55982375 0.05678734 179.68872851 0.06386581 196.81763649 0.06811619 C197.87345658 0.06837891 198.92927668 0.06864164 200.01709132 0.06891232 C205.31382873 0.07021736 210.61056615 0.07148107 215.90730357 0.07272422 C259.8492602 0.08309099 303.79121178 0.10070421 347.73316383 0.12304783 C347.8328094 6.04544384 347.90499648 11.96734077 347.9528904 17.89038181 C347.97287776 19.90088507 348.00007709 21.91133116 348.03492165 23.92163181 C348.30319733 39.8090754 347.49684008 51.78362655 336.14332008 63.80664158 C327.07325829 72.36451164 316.57880323 72.6952823 304.72681618 72.57714939 C303.12930263 72.57601922 301.53178702 72.57665807 299.93427467 72.57891941 C295.6249019 72.58006089 291.31598003 72.556644 287.00671148 72.52862358 C282.49307739 72.50351494 277.97943146 72.5012605 273.4657383 72.49652195 C264.93072418 72.48411986 256.3959165 72.45133594 247.86099303 72.41112399 C238.13908898 72.36631987 228.41717475 72.34439756 218.69519305 72.32434225 C198.70773191 72.28260068 178.72046819 72.21149122 158.73316383 72.12304783 C158.73316383 76.41304783 158.73316383 80.70304783 158.73316383 85.12304783 C182.16316383 85.12304783 205.59316383 85.12304783 229.73316383 85.12304783 C229.73316383 89.08304783 229.73316383 93.04304783 229.73316383 97.12304783 C206.30316383 97.12304783 182.87316383 97.12304783 158.73316383 97.12304783 C158.73316383 101.08304783 158.73316383 105.04304783 158.73316383 109.12304783 C182.16316383 109.12304783 205.59316383 109.12304783 229.73316383 109.12304783 C229.73316383 113.08304783 229.73316383 117.04304783 229.73316383 121.12304783 C206.30316383 121.12304783 182.87316383 121.12304783 158.73316383 121.12304783 C158.73316383 125.41304783 158.73316383 129.70304783 158.73316383 134.12304783 C182.16316383 134.12304783 205.59316383 134.12304783 229.73316383 134.12304783 C229.73316383 138.08304783 229.73316383 142.04304783 229.73316383 146.12304783 C206.30316383 146.12304783 182.87316383 146.12304783 158.73316383 146.12304783 C158.73316383 150.08304783 158.73316383 154.04304783 158.73316383 158.12304783 C182.16316383 158.12304783 205.59316383 158.12304783 229.73316383 158.12304783 C229.73316383 162.08304783 229.73316383 166.04304783 229.73316383 170.12304783 C206.30316383 170.12304783 182.87316383 170.12304783 158.73316383 170.12304783 C158.73316383 174.41304783 158.73316383 178.70304783 158.73316383 183.12304783 C182.16316383 183.12304783 205.59316383 183.12304783 229.73316383 183.12304783 C229.73316383 187.08304783 229.73316383 191.04304783 229.73316383 195.12304783 C206.30316383 195.12304783 182.87316383 195.12304783 158.73316383 195.12304783 C158.73316383 199.08304783 158.73316383 203.04304783 158.73316383 207.12304783 C182.16316383 207.12304783 205.59316383 207.12304783 229.73316383 207.12304783 C229.73316383 211.08304783 229.73316383 215.04304783 229.73316383 219.12304783 C206.30316383 219.12304783 182.87316383 219.12304783 158.73316383 219.12304783 C158.73316383 223.41304783 158.73316383 227.70304783 158.73316383 232.12304783 C182.16316383 232.12304783 205.59316383 232.12304783 229.73316383 232.12304783 C229.73316383 236.08304783 229.73316383 240.04304783 229.73316383 244.12304783 C206.30316383 244.12304783 182.87316383 244.12304783 158.73316383 244.12304783 C158.73316383 248.08304783 158.73316383 252.04304783 158.73316383 256.12304783 C182.16316383 256.12304783 205.59316383 256.12304783 229.73316383 256.12304783 C229.73316383 260.08304783 229.73316383 264.04304783 229.73316383 268.12304783 C206.30316383 268.12304783 182.87316383 268.12304783 158.73316383 268.12304783 C158.73316383 272.08304783 158.73316383 276.04304783 158.73316383 280.12304783 C182.16316383 280.12304783 205.59316383 280.12304783 229.73316383 280.12304783 C228.73316383 288.12304783 228.73316383 288.12304783 226.73316383 292.12304783 C204.29316383 292.12304783 181.85316383 292.12304783 158.73316383 292.12304783 C158.73316383 296.41304783 158.73316383 300.70304783 158.73316383 305.12304783 C177.21316383 305.12304783 195.69316383 305.12304783 214.73316383 305.12304783 C208.91704463 310.93916703 203.83680564 312.43802773 195.71535683 312.55185032 C194.85594994 312.54891972 193.99654305 312.54598911 193.11109352 312.5429697 C192.18310448 312.55143925 191.25511543 312.55990879 190.29900551 312.56863499 C187.25087465 312.59190929 184.2032516 312.59302922 181.15503883 312.59179783 C179.0204543 312.59890643 176.88587166 312.60660644 174.75129128 312.61486912 C170.28279241 312.62829294 165.81447015 312.62989266 161.3459568 312.62402439 C155.64560855 312.61813801 149.94611484 312.64868642 144.24593163 312.68914127 C139.83785447 312.71511158 135.42998034 312.71788708 131.02183723 312.71424961 C128.92167201 312.7159329 126.82149659 312.72549843 124.72140694 312.7433939 C111.21014528 312.84584351 98.72363241 312.80246927 88.26050758 302.92773533 C80.23576717 293.44581699 77.56797369 283.7205426 77.61290932 271.50503635 C77.61205489 270.65053091 77.61120047 269.79602547 77.61032015 268.91562593 C77.60867644 266.05977761 77.61416855 263.20398837 77.61963844 260.34814548 C77.61992058 258.29802546 77.61976206 256.24790534 77.61919594 254.19778538 C77.618909 248.63632572 77.62478907 243.07488763 77.6317699 237.51343298 C77.6380206 231.69982386 77.63860859 225.88621424 77.6397953 220.07260227 C77.64290355 209.06551468 77.65111013 198.05843703 77.66114479 187.05135381 C77.67441148 172.17619427 77.67980993 157.301032 77.68564701 142.42586803 C77.69505034 118.99158719 77.71497266 95.55732731 77.73316383 72.12304783 C39.12316383 72.12304783 0.51316383 72.12304783 -39.26683617 72.12304783 C-39.26683617 20.43346911 -39.26683617 20.43346911 -29.26683617 10.12304783 C-20.58262057 3.01778052 -11.18633144 -0.00395836 0 0 Z " fill="#7C39EC" transform="translate(211.26683616638184,247.87695217132568)"/>
<path d="M0 0 C1.2659687 -0.0039821 2.5319374 -0.00796419 3.83626878 -0.01206696 C5.23350623 -0.00636158 6.63074293 -0.0004704 8.0279789 0.00558662 C9.5180861 0.00471423 11.00819301 0.00296262 12.49829829 0.00040829 C16.58934811 -0.00406259 20.68029316 0.00393489 24.77132964 0.01396441 C29.1843533 0.02260033 33.59737104 0.01967865 38.01040077 0.01815987 C45.65507215 0.01711111 53.29970939 0.02338679 60.94437218 0.03463554 C71.99727049 0.05088877 83.0501523 0.05609837 94.10306127 0.05861153 C112.03561357 0.06298891 129.96814767 0.07629918 147.90069008 0.09521675 C165.32061103 0.11357443 182.74052703 0.12773149 200.1604557 0.13623238 C201.7710688 0.13702055 201.7710688 0.13702055 203.41421954 0.13782464 C208.80086136 0.14043471 214.18750321 0.14296213 219.57414508 0.14544845 C264.26259586 0.16618228 308.9510268 0.201409 353.63945961 0.24609566 C353.73913426 6.02607514 353.81130544 11.80554253 353.85918617 17.58618355 C353.87916879 19.54818639 353.90636445 21.51013071 353.94121742 23.47192574 C354.21345661 39.20174568 353.283651 51.03320502 342.04961586 62.92968941 C334.05118453 70.47644462 323.97340763 72.37294477 313.26519299 72.36914349 C312.02161701 72.37113453 310.77804103 72.37312558 309.49678093 72.37517697 C308.12999806 72.37232449 306.76321537 72.3693789 305.39643288 72.36635017 C303.93433677 72.36678651 302.47224074 72.36766258 301.01014513 72.36893934 C297.00119498 72.37117197 292.99227162 72.36717987 288.98332489 72.36216128 C284.65689081 72.35783928 280.33045822 72.35930445 276.0040226 72.36006355 C268.51107425 72.36058768 261.01813461 72.3574525 253.52518845 72.35182571 C242.69167121 72.34369564 231.85815818 72.34109395 221.02463823 72.33983772 C203.44759388 72.33764958 185.87055417 72.33099591 168.29351234 72.32153511 C151.21994487 72.31235486 134.14637866 72.30527702 117.07280922 72.3010273 C116.02023884 72.30076457 114.96766847 72.30050185 113.88320202 72.30023117 C108.60271932 72.29892612 103.32223661 72.29766241 98.04175389 72.29641926 C54.24098591 72.28605404 10.440223 72.26844216 -33.36054039 72.24609566 C-33.46002658 66.02055618 -33.5322997 59.79548784 -33.58026695 53.56933784 C-33.60028055 51.45499794 -33.62750011 49.34071267 -33.6622982 47.22656441 C-33.7112698 44.17304118 -33.73361221 41.12025488 -33.75116539 38.06640816 C-33.77181053 37.13370094 -33.79245567 36.20099373 -33.81372643 35.24002266 C-33.81730437 24.57953379 -30.01919149 17.06793187 -22.73163414 9.44531441 C-16.10462819 3.29868451 -9.15219751 -0.00636896 0 0 Z " fill="#CDAFFF" transform="translate(205.36054039001465,159.75390434265137)"/>
</svg>
